REM DIRINDEX 1\2,1\4,1\5,1\6,1\7,1\3\8,1\3\9,1\3\10
REM DIRNAME cjc113,folder01,folder02,folder03,folder04,folder05,folder06,folder07,folder08,folder09
TITLE ""
FILE "DB4500_5th_2A_36.mp3" MP3
  TRACK 01 AUDIO
    TITLE "0:"
    INDEX 01 00:00:00
  TRACK 02 AUDIO
    TITLE "8:cjc113_1342"
    INDEX 01 00:00:03
  TRACK 03 AUDIO
    TITLE "0:"
    INDEX 01 00:01:32
  TRACK 04 AUDIO
    TITLE "9:cjc113_1343"
    INDEX 01 00:01:52
  TRACK 05 AUDIO
    TITLE "0:"
    INDEX 01 00:03:00
  TRACK 06 AUDIO
    TITLE "10:cjc113_1344"
    INDEX 01 00:03:17
  TRACK 07 AUDIO
    TITLE "0:"
    INDEX 01 00:07:74
  TRACK 08 AUDIO
    TITLE "8:cjc113_1345"
    INDEX 01 00:08:42
  TRACK 09 AUDIO
    TITLE "0:"
    INDEX 01 00:09:57
  TRACK 10 AUDIO
    TITLE "9:cjc113_1346"
    INDEX 01 00:09:73
  TRACK 11 AUDIO
    TITLE "0:"
    INDEX 01 00:11:33
  TRACK 12 AUDIO
    TITLE "10:cjc113_1347"
    INDEX 01 00:11:52
  TRACK 13 AUDIO
    TITLE "0:"
    INDEX 01 00:15:68
  TRACK 14 AUDIO
    TITLE "8:cjc113_1348"
    INDEX 01 00:16:34
  TRACK 15 AUDIO
    TITLE "0:"
    INDEX 01 00:17:63
  TRACK 16 AUDIO
    TITLE "9:cjc113_1349"
    INDEX 01 00:18:05
  TRACK 17 AUDIO
    TITLE "0:"
    INDEX 01 00:19:05
  TRACK 18 AUDIO
    TITLE "10:cjc113_1350"
    INDEX 01 00:19:22
  TRACK 19 AUDIO
    TITLE "0:"
    INDEX 01 00:22:54
  TRACK 20 AUDIO
    TITLE "10:cjc113_1351"
    INDEX 01 00:23:26
  TRACK 21 AUDIO
    TITLE "0:"
    INDEX 01 00:26:38
  TRACK 22 AUDIO
    TITLE "8:cjc113_1352"
    INDEX 01 00:27:08
  TRACK 23 AUDIO
    TITLE "0:"
    INDEX 01 00:28:29
  TRACK 24 AUDIO
    TITLE "9:cjc113_1353"
    INDEX 01 00:28:51
  TRACK 25 AUDIO
    TITLE "0:"
    INDEX 01 00:30:03
  TRACK 26 AUDIO
    TITLE "10:cjc113_1354"
    INDEX 01 00:30:20
  TRACK 27 AUDIO
    TITLE "0:"
    INDEX 01 00:35:27
  TRACK 28 AUDIO
    TITLE "8:cjc113_1355"
    INDEX 01 00:35:70
  TRACK 29 AUDIO
    TITLE "0:"
    INDEX 01 00:37:05
  TRACK 30 AUDIO
    TITLE "9:cjc113_1356"
    INDEX 01 00:37:24
  TRACK 31 AUDIO
    TITLE "0:"
    INDEX 01 00:38:30
  TRACK 32 AUDIO
    TITLE "10:cjc113_1357"
    INDEX 01 00:38:47
  TRACK 33 AUDIO
    TITLE "0:"
    INDEX 01 00:41:57
  TRACK 34 AUDIO
    TITLE "8:cjc113_1358"
    INDEX 01 00:42:23
  TRACK 35 AUDIO
    TITLE "0:"
    INDEX 01 00:43:35
  TRACK 36 AUDIO
    TITLE "9:cjc113_1359"
    INDEX 01 00:43:60
  TRACK 37 AUDIO
    TITLE "0:"
    INDEX 01 00:45:26
  TRACK 38 AUDIO
    TITLE "10:cjc113_1360"
    INDEX 01 00:45:49
  TRACK 39 AUDIO
    TITLE "0:"
    INDEX 01 00:49:02
  TRACK 40 AUDIO
    TITLE "8:cjc113_1361"
    INDEX 01 00:49:47
  TRACK 41 AUDIO
    TITLE "0:"
    INDEX 01 00:50:62
  TRACK 42 AUDIO
    TITLE "9:cjc113_1362"
    INDEX 01 00:51:11
  TRACK 43 AUDIO
    TITLE "0:"
    INDEX 01 00:52:08
  TRACK 44 AUDIO
    TITLE "10:cjc113_1363"
    INDEX 01 00:52:32
  TRACK 45 AUDIO
    TITLE "0:"
    INDEX 01 00:55:59
  TRACK 46 AUDIO
    TITLE "8:cjc113_1364"
    INDEX 01 00:56:31
  TRACK 47 AUDIO
    TITLE "0:"
    INDEX 01 00:57:39
  TRACK 48 AUDIO
    TITLE "9:cjc113_1365"
    INDEX 01 00:57:62
  TRACK 49 AUDIO
    TITLE "0:"
    INDEX 01 00:59:32
  TRACK 50 AUDIO
    TITLE "10:cjc113_1366"
    INDEX 01 00:59:57
  TRACK 51 AUDIO
    TITLE "0:"
    INDEX 01 01:01:74
  TRACK 52 AUDIO
    TITLE "8:cjc113_1367"
    INDEX 01 01:02:48
  TRACK 53 AUDIO
    TITLE "0:"
    INDEX 01 01:03:69
  TRACK 54 AUDIO
    TITLE "9:cjc113_1368"
    INDEX 01 01:04:15
  TRACK 55 AUDIO
    TITLE "0:"
    INDEX 01 01:05:26
  TRACK 56 AUDIO
    TITLE "10:cjc113_1369"
    INDEX 01 01:05:50
  TRACK 57 AUDIO
    TITLE "0:"
    INDEX 01 01:08:56
  TRACK 58 AUDIO
    TITLE "8:cjc113_1370"
    INDEX 01 01:09:28
  TRACK 59 AUDIO
    TITLE "0:"
    INDEX 01 01:10:57
  TRACK 60 AUDIO
    TITLE "9:cjc113_1371"
    INDEX 01 01:11:00
  TRACK 61 AUDIO
    TITLE "0:"
    INDEX 01 01:12:17
  TRACK 62 AUDIO
    TITLE "10:cjc113_1372"
    INDEX 01 01:12:40
  TRACK 63 AUDIO
    TITLE "0:"
    INDEX 01 01:15:17
  TRACK 64 AUDIO
    TITLE "8:cjc113_1373"
    INDEX 01 01:15:64
  TRACK 65 AUDIO
    TITLE "0:"
    INDEX 01 01:16:65
  TRACK 66 AUDIO
    TITLE "9:cjc113_1374"
    INDEX 01 01:17:12
  TRACK 67 AUDIO
    TITLE "0:"
    INDEX 01 01:18:35
  TRACK 68 AUDIO
    TITLE "10:cjc113_1375"
    INDEX 01 01:18:56
  TRACK 69 AUDIO
    TITLE "0:"
    INDEX 01 01:21:53
  TRACK 70 AUDIO
    TITLE "8:cjc113_1376"
    INDEX 01 01:22:25
  TRACK 71 AUDIO
    TITLE "0:"
    INDEX 01 01:23:50
  TRACK 72 AUDIO
    TITLE "9:cjc113_1377"
    INDEX 01 01:23:73
  TRACK 73 AUDIO
    TITLE "0:"
    INDEX 01 01:25:47
  TRACK 74 AUDIO
    TITLE "10:cjc113_1378"
    INDEX 01 01:25:70
  TRACK 75 AUDIO
    TITLE "0:"
    INDEX 01 01:28:59
  TRACK 76 AUDIO
    TITLE "8:cjc113_1379"
    INDEX 01 01:29:29
  TRACK 77 AUDIO
    TITLE "0:"
    INDEX 01 01:30:50
  TRACK 78 AUDIO
    TITLE "9:cjc113_1380"
    INDEX 01 01:31:00
  TRACK 79 AUDIO
    TITLE "0:"
    INDEX 01 01:32:47
  TRACK 80 AUDIO
    TITLE "10:cjc113_1381"
    INDEX 01 01:32:66
  TRACK 81 AUDIO
    TITLE "0:"
    INDEX 01 01:36:33
  TRACK 82 AUDIO
    TITLE "8:cjc113_1382"
    INDEX 01 01:37:05
  TRACK 83 AUDIO
    TITLE "0:"
    INDEX 01 01:38:14
  TRACK 84 AUDIO
    TITLE "9:cjc113_1383"
    INDEX 01 01:38:38
  TRACK 85 AUDIO
    TITLE "0:"
    INDEX 01 01:40:05
  TRACK 86 AUDIO
    TITLE "10:cjc113_1384"
    INDEX 01 01:40:27
  TRACK 87 AUDIO
    TITLE "0:"
    INDEX 01 01:44:50
